<?xml version="1.0" encoding="utf-8"?>
<!-- Generator: Adobe Illustrator 26.0.0, SVG Export Plug-In . SVG Version: 6.00 Build 0)  -->
<svg version="1.1" id="圖層_1" xmlns="http://www.w3.org/2000/svg" xmlns:xlink="http://www.w3.org/1999/xlink" x="0px" y="0px"
	 viewBox="0 0 120 180" style="enable-background:new 0 0 120 180;" xml:space="preserve">
<style type="text/css">
	.st0{fill:#FFD943;stroke:#FFFFFF;stroke-width:4.2151;stroke-linecap:round;}
	.st1{fill:none;stroke:#FFFFFF;stroke-width:4.2151;stroke-linecap:round;}
	.st2{fill:none;stroke:#FFFFFF;stroke-width:7.3763;stroke-linecap:round;}
	.st3{fill:#21A1A0;stroke:#FFFFFF;stroke-width:4.2151;stroke-linecap:round;}
	.st4{fill:#FFFFFF;}
	.st5{fill:none;stroke:#FFFFFF;stroke-width:3.1613;stroke-linecap:square;}
</style>
<g>
	<path class="st0" d="M13,71h95.2v55.8c0,4-3.3,7.3-7.3,7.3H20.3c-4,0-7.3-3.3-7.3-7.3V71z"/>
	<path class="st1" d="M14.2,71l5.9-15.5c1.5-3.9,5.1-6.3,9.3-6.3h64.5c4.1,0,7.8,2.6,9.3,6.3l1.2,3.1"/>
	<line class="st1" x1="2.9" y1="71" x2="117.1" y2="71"/>
	<line class="st2" x1="61.2" y1="46" x2="61.2" y2="47.2"/>
	<path class="st3" d="M47.7,104c0-4,3.3-7.3,7.3-7.3h11.1c4,0,7.3,3.3,7.3,7.3v30H47.8L47.7,104L47.7,104z"/>
	<circle class="st4" cx="60.6" cy="112.1" r="3.9"/>
	<line class="st5" x1="58.8" y1="124.4" x2="62.7" y2="124.4"/>
</g>
</svg>
