<?xml version="1.0" encoding="utf-8"?>
<!-- Generator: Adobe Illustrator 26.0.0, SVG Export Plug-In . SVG Version: 6.00 Build 0)  -->
<svg version="1.1" id="圖層_1" xmlns="http://www.w3.org/2000/svg" xmlns:xlink="http://www.w3.org/1999/xlink" x="0px" y="0px"
	 viewBox="0 0 120 180" style="enable-background:new 0 0 120 180;" xml:space="preserve">
<style type="text/css">
	.st0{fill:#FFD943;}
	.st1{fill:#69C8BE;}
	.st2{fill:none;stroke:#21A1A0;stroke-width:4;stroke-linecap:round;}
	.st3{fill:#FFFFFF;}
	.st4{fill:none;stroke:#FFFFFF;stroke-width:4;}
</style>
<g>
	<rect x="90.3" y="62.9" class="st0" width="23.9" height="80.9"/>
	<rect x="7" y="62.9" class="st1" width="82" height="80.9"/>
	<path class="st2" d="M15.8,30.5l22.5,17.9c1.3,1,3.3,1.1,4.6,0.1l38.6-28.7"/>
	<path class="st3" d="M14.5,157.5c0,1.4,1.1,2.6,2.6,2.6s2.6-1.1,2.6-2.6H14.5z M14.5,147.5v10h5v-10H14.5z"/>
	<path class="st3" d="M100.4,157.5c0,1.4,1.1,2.6,2.6,2.6c1.4,0,2.6-1.1,2.6-2.6H100.4z M100.4,147.5v10h5v-10H100.4z"/>
	<line class="st4" x1="89.4" y1="58.6" x2="89.4" y2="147.9"/>
	<path class="st4" d="M8.2,61h103.5c2.2,0,3.7,1.7,3.7,3.7v76.7c0,2.2-1.7,3.7-3.7,3.7H8.2c-2.2,0-3.7-1.7-3.7-3.7V64.9
		C4.5,62.8,6.1,61,8.2,61z"/>
</g>
</svg>
