<?xml version="1.0" encoding="UTF-8"?>
<svg version="1.1" xmlns="http://www.w3.org/2000/svg" width="1599" height="1066">
<path d="M0 0 C527.67 0 1055.34 0 1599 0 C1599 351.78 1599 703.56 1599 1066 C1071.33 1066 543.66 1066 0 1066 C0 714.22 0 362.44 0 0 Z " fill="#FE0000" transform="translate(0,0)"/>
<path d="M0 0 C264 0 528 0 800 0 C800 175.89 800 351.78 800 533 C536 533 272 533 0 533 C0 357.11 0 181.22 0 0 Z " fill="#000095" transform="translate(0,0)"/>
<path d="M0 0 C6.6976786 5.94663323 12.01313464 12.57793499 17 20 C17.53496094 20.79019531 18.06992187 21.58039063 18.62109375 22.39453125 C33.10887543 45.08578412 35.96146071 71.77865982 30.54345703 97.71728516 C29.02963496 104.0758819 26.69876345 110.05939235 24 116 C23.56494141 116.9588208 23.56494141 116.9588208 23.12109375 117.93701172 C18.46921465 127.90784133 12.43916935 135.94089987 5 144 C4.41734375 144.66386719 3.8346875 145.32773437 3.234375 146.01171875 C-11.88428736 162.39026964 -35.9150525 172.7553988 -57.92382812 174.19067383 C-60.91055489 174.26672933 -63.88746616 174.27811853 -66.875 174.25 C-67.93001709 174.24250732 -68.98503418 174.23501465 -70.07202148 174.22729492 C-94.24757835 173.89362042 -114.78226284 165.79552866 -133 150 C-133.58523438 149.55785156 -134.17046875 149.11570312 -134.7734375 148.66015625 C-152.04215042 135.32352116 -163.69761975 110.79146902 -166.72265625 89.55859375 C-167.69175163 77.12414462 -167.99081835 64.16953675 -165 52 C-164.75507813 50.92234375 -164.51015625 49.8446875 -164.2578125 48.734375 C-160.53753396 34.05079774 -153.561268 21.6451341 -144 10 C-143.46117187 9.29746094 -142.92234375 8.59492188 -142.3671875 7.87109375 C-128.38258444 -9.52181709 -104.86740047 -21.92714932 -82.890625 -24.71484375 C-51.52425774 -27.01378432 -24.39916588 -20.68051228 0 0 Z " fill="#FEFEFE" transform="translate(467,192)"/>
<path d="M0 0 C-0.16242188 1.17304688 -0.32484375 2.34609375 -0.4921875 3.5546875 C-1.17649715 9.73281879 -1.15009449 15.90198126 -1.13037109 22.11181641 C-1.12499198 24.1280055 -1.13035546 26.14397373 -1.13671875 28.16015625 C-1.13542969 29.45050781 -1.13414062 30.74085938 -1.1328125 32.0703125 C-1.13112061 33.81465576 -1.13112061 33.81465576 -1.12939453 35.59423828 C-0.99535126 39.1223583 -0.55858159 42.51593746 0 46 C-4.52485256 45.31249359 -8.89705579 44.32204617 -13.328125 43.1796875 C-14.02604156 43.00034164 -14.72395813 42.82099579 -15.44302368 42.63621521 C-17.71275098 42.05195149 -19.98142356 41.46371515 -22.25 40.875 C-23.83088367 40.46635803 -25.41177568 40.05774831 -26.99267578 39.64916992 C-47.40428602 34.3646701 -67.74827968 28.86912914 -88 23 C-85.67347061 20.67347061 -84.4534926 20.44691679 -81.29296875 19.703125 C-80.32456055 19.46972412 -79.35615234 19.23632324 -78.35839844 18.99584961 C-77.31200195 18.74971924 -76.26560547 18.50358887 -75.1875 18.25 C-67.15554609 16.3068047 -59.18087488 14.25974212 -51.25 11.9375 C-43.63187193 9.71287706 -35.98526008 7.70607554 -28.27246094 5.8371582 C-21.89783388 4.27533637 -15.6200389 2.46406004 -9.37792969 0.43530273 C-5.79513159 -0.6822144 -3.57394147 -1.10245353 0 0 Z " fill="#F9F9FC" transform="translate(289,244)"/>
<path d="M0 0 C3.11167713 1.48568803 5.7591809 3.24983747 8.51708984 5.32592773 C18.83094141 13.05768375 29.90368026 18.61474883 42 23 C38.17599988 27.56964892 34.22181138 31.92089744 29.99462891 36.11889648 C29.14475403 36.9689904 29.14475403 36.9689904 28.27770996 37.83625793 C26.42969132 39.68358747 24.57817097 41.52736301 22.7265625 43.37109375 C21.43454448 44.66124403 20.14274904 45.95161724 18.85116577 47.24220276 C15.47012957 50.61944189 12.08609986 53.99366562 8.70141602 57.36724854 C5.24052041 60.81786929 1.78249457 64.27136338 -1.67578125 67.72460938 C-8.44773144 74.48587186 -15.22285083 81.24394899 -22 88 C-23.34072588 83.97782237 -22.11336241 81.16347002 -20.9375 77.25 C-20.46552421 75.6216501 -19.99556956 73.9927134 -19.52734375 72.36328125 C-19.27710449 71.49525879 -19.02686523 70.62723633 -18.76904297 69.73291016 C-17.43391781 64.98834158 -16.22443 60.21158824 -15 55.4375 C-13.1279736 48.18206224 -11.14515636 40.98205247 -8.97583008 33.81054688 C-5.64387921 22.63721786 -2.88051851 11.29607757 0 0 Z " fill="#FBFBFD" transform="translate(323,351)"/>
<path d="M0 0 C4.17615799 1.63743934 6.9648153 4.69781792 10.05371094 7.82666016 C10.64926285 8.42192001 11.24481476 9.01717987 11.8584137 9.63047791 C13.82184643 11.59530177 15.77810373 13.56711039 17.734375 15.5390625 C19.0958564 16.90427479 20.45778061 18.26904561 21.82012939 19.63339233 C25.40183824 23.22273159 28.9774999 26.8180368 32.55194092 30.41461182 C36.20157121 34.08471319 39.85688092 37.74914829 43.51171875 41.4140625 C50.68005329 48.60383652 57.842013 55.79992516 65 63 C61.48463421 64.1717886 60.33609033 63.76224434 56.828125 62.77734375 C55.78269531 62.48907715 54.73726562 62.20081055 53.66015625 61.90380859 C52.53480469 61.58492676 51.40945313 61.26604492 50.25 60.9375 C47.88045319 60.28166677 45.51065645 59.62673593 43.140625 58.97265625 C41.94373047 58.64023926 40.74683594 58.30782227 39.51367188 57.96533203 C34.35611373 56.54836532 29.17934378 55.20966856 24 53.875 C15.05490797 51.55615632 6.14404833 49.13253271 -2.75146484 46.63085938 C-6.8735476 45.47434886 -10.99957668 44.33202485 -15.125 43.1875 C-16.64845309 42.76437906 -18.17189212 42.34120747 -19.6953125 41.91796875 C-20.78585937 41.61503906 -21.87640625 41.31210937 -23 41 C-21.62246614 37.99082409 -19.994132 35.65810197 -17.875 33.125 C-9.98950435 23.10828931 -4.7195446 11.76310737 0 0 Z " fill="#FAFAFD" transform="translate(507,302)"/>
<path d="M0 0 C-8.1737761 8.22003029 -16.35288172 16.43471564 -24.53891563 24.64253998 C-28.33947557 28.45355597 -32.1381451 32.26641787 -35.93261719 36.08349609 C-39.59165424 39.76419664 -43.25549534 43.44005022 -46.92277908 47.11253357 C-48.32401895 48.5174809 -49.72349169 49.9241929 -51.12119675 51.33265686 C-53.07279025 53.29867892 -55.03046187 55.25844343 -56.98974609 57.21679688 C-57.57165207 57.8058934 -58.15355804 58.39498993 -58.75309753 59.00193787 C-62.77189568 63 -62.77189568 63 -65 63 C-65.42410156 61.98421875 -65.84820312 60.9684375 -66.28515625 59.921875 C-71.16410869 48.40040868 -76.48777426 37.64177389 -84.51953125 27.9375 C-85.97740155 26.02957475 -86.95913495 24.1550975 -88 22 C-87.11985229 21.77449463 -87.11985229 21.77449463 -86.22192383 21.54443359 C-75.54750244 18.80251349 -64.89590927 16.01408413 -54.3125 12.9375 C-46.76631048 10.74587207 -39.19255528 8.75897419 -31.55615234 6.9074707 C-24.20519962 5.10513681 -16.94972611 3.00616168 -9.71289062 0.79101562 C-8.87822266 0.54287109 -8.04355469 0.29472656 -7.18359375 0.0390625 C-6.44681396 -0.18571777 -5.71003418 -0.41049805 -4.95092773 -0.64208984 C-3 -1 -3 -1 0 0 Z " fill="#FBFBFD" transform="translate(572,168)"/>
<path d="M0 0 C4.56964892 3.82400012 8.92089744 7.77818862 13.11889648 12.00537109 C13.68562576 12.57195435 14.25235504 13.1385376 14.83625793 13.72229004 C16.68358747 15.57030868 18.52736301 17.42182903 20.37109375 19.2734375 C21.66124403 20.56545552 22.95161724 21.85725096 24.24220276 23.14883423 C27.61944189 26.52987043 30.99366562 29.91390014 34.36724854 33.29858398 C37.81786929 36.75947959 41.27136338 40.21750543 44.72460938 43.67578125 C51.48587186 50.44773144 58.24394899 57.22285083 65 64 C62.32010042 65.78659972 59.77613297 66.95222319 56.80810547 68.15673828 C46.15011796 72.52360529 36.44503981 78.28299209 27.6953125 85.8046875 C25 88 25 88 23 88 C22.78384033 87.14994385 22.56768066 86.2998877 22.3449707 85.42407227 C17.65022513 66.66347347 17.65022513 66.66347347 12.375 48.0625 C9.43841864 38.42010501 7.09743334 28.62637805 4.69775391 18.83935547 C3.68619668 14.72304668 2.65605031 10.61146058 1.625 6.5 C1.08333333 4.33333333 0.54166667 2.16666667 0 0 Z " fill="#FBFBFD" transform="translate(300,94)"/>
<path d="M0 0 C2.99953542 2.99953542 3.31779457 6.79312073 4.25 10.8125 C5.99983344 18.09644524 7.89841913 25.30970679 10 32.5 C12.21530244 40.10929645 14.222423 47.74488245 16.09448242 55.4453125 C17.8917271 62.7590898 19.95998407 69.98507967 22.12109375 77.19921875 C22.36601562 78.03066406 22.6109375 78.86210937 22.86328125 79.71875 C23.08282471 80.45029297 23.30236816 81.18183594 23.52856445 81.93554688 C24 84 24 84 24 88 C23.06542969 87.9278125 22.13085938 87.855625 21.16796875 87.78125 C6.41798405 86.73905285 -8.46126591 85.74982392 -23 89 C-22.0759745 82.61457005 -20.63033551 76.48026458 -18.75 70.3125 C-16.60061385 63.25990225 -14.75272189 56.16112087 -13 49 C-11.12593987 41.35868251 -9.12242434 33.79515634 -6.83520508 26.26782227 C-4.22870906 17.59891942 -2.1371012 8.7939441 0 0 Z " fill="#FAFAFD" transform="translate(399,67)"/>
<path d="M0 0 C9.48981829 1.6618115 18.64508993 3.95567203 27.88549805 6.66650391 C33.89343385 8.42126767 39.91891349 10.01974344 46 11.5 C55.65722861 13.85822736 65.19430252 16.5796867 74.74023438 19.34960938 C79.14609087 20.61767352 83.57053616 21.81742652 88 23 C84.96757025 25.02161984 82.89770487 25.67890332 79.3984375 26.55078125 C78.27735596 26.83445557 77.15627441 27.11812988 76.0012207 27.41040039 C74.80456787 27.70809326 73.60791504 28.00578613 72.375 28.3125 C64.64647922 30.27086509 56.93805851 32.23246823 49.3125 34.5625 C40.53608576 37.22802742 31.63863326 39.38234625 22.734375 41.57421875 C16.67433538 43.06917558 10.65057294 44.68004369 4.6328125 46.3359375 C2 47 2 47 0 47 C0.0707373 46.35748291 0.14147461 45.71496582 0.21435547 45.05297852 C0.96451292 37.66412538 1.15103143 30.36079501 1.125 22.9375 C1.12886719 21.83083984 1.13273438 20.72417969 1.13671875 19.58398438 C1.12893417 12.99434093 0.80918731 6.54077714 0 0 Z " fill="#FCFCFD" transform="translate(511,243)"/>
<path d="M0 0 C0.59941406 0.144375 1.19882812 0.28875 1.81640625 0.4375 C16.46650782 3.43837429 32.20298078 2.66190208 47 1 C45.52568117 8.84261895 43.69315228 16.57399997 41.75 24.3125 C41.4420752 25.54291016 41.13415039 26.77332031 40.81689453 28.04101562 C38.74369091 36.24855695 36.5174889 44.39653375 34.13647461 52.51953125 C32.13571199 59.38466902 30.37832304 66.2965148 28.73583984 73.25585938 C27.50964391 78.34879525 25.92801561 83.12717669 24 88 C22.58979772 85.32795891 21.53631407 82.76162817 20.703125 79.859375 C20.46972412 79.04823242 20.23632324 78.23708984 19.99584961 77.40136719 C19.74971924 76.52641602 19.50358887 75.65146484 19.25 74.75 C18.98904541 73.8312207 18.72809082 72.91244141 18.45922852 71.96582031 C16.19865987 63.90987715 14.17751203 55.80111339 12.18286133 47.67602539 C10.56372721 41.12471069 8.78354114 34.6499427 6.83496094 28.18994141 C5.18356321 22.69468051 3.65979545 17.17087333 2.1875 11.625 C1.96827881 10.80926514 1.74905762 9.99353027 1.52319336 9.15307617 C0.70146879 6.02826877 0 3.24556563 0 0 Z " fill="#FBFBFD" transform="translate(376,377)"/>
<path d="M0 0 C1.7558493 2.63377395 2.49371978 4.22931305 3.33203125 7.18359375 C3.57050781 8.01826172 3.80898438 8.85292969 4.0546875 9.71289062 C4.30476563 10.61201172 4.55484375 11.51113281 4.8125 12.4375 C5.20888672 13.84225586 5.20888672 13.84225586 5.61328125 15.27539062 C7.57881219 22.31066843 9.37194354 29.38075224 11.10473633 36.47631836 C12.59559297 42.52807005 14.25943737 48.51567449 16 54.5 C18.08696907 61.70271196 20.08157839 68.92154061 21.9375 76.1875 C22.16115234 77.0434375 22.38480469 77.899375 22.61523438 78.78125 C24.11817683 84.76364634 24.11817683 84.76364634 23 87 C2.21 66.21 -18.58 45.42 -40 24 C-38.45898749 20.91797498 -35.45913496 20.55353542 -32.375 19.4375 C-20.45900476 14.89389796 -9.74719667 8.21511698 0 0 Z " fill="#FCFCFD" transform="translate(475,351)"/>
<path d="M0 0 C1.34122728 2.68245457 0.72798084 3.8207882 -0.00390625 6.70703125 C-0.24689453 7.67511719 -0.48988281 8.64320312 -0.74023438 9.640625 C-1.14725586 11.21070312 -1.14725586 11.21070312 -1.5625 12.8125 C-1.83771484 13.89402344 -2.11292969 14.97554687 -2.39648438 16.08984375 C-4.37443007 23.78535912 -6.5156505 31.42523442 -8.74609375 39.05078125 C-10.69327931 45.76451481 -12.40333856 52.52240579 -14.0625 59.3125 C-16.35113371 68.67113596 -18.96171688 77.85826318 -22 87 C-25.77804253 84.81053111 -29.27921007 82.37515572 -32.8125 79.8125 C-42.15835519 73.19536166 -52.47665119 68.43231487 -63 64 C-59.20301491 59.46479694 -55.28288646 55.13986003 -51.08642578 50.97290039 C-50.5295961 50.41592468 -49.97276642 49.85894897 -49.39906311 49.28509521 C-47.58351 47.47023101 -45.76445606 45.65892089 -43.9453125 43.84765625 C-42.67571469 42.57992626 -41.40633952 41.31197327 -40.13717651 40.04380798 C-36.81532426 36.72575224 -33.49047867 33.41071211 -30.16497803 30.09631348 C-26.76440491 26.70601645 -23.36670263 23.31284494 -19.96875 19.91992188 C-13.31528981 13.27714838 -6.65866041 6.63756054 0 0 Z " fill="#FCFCFE" transform="translate(498,95)"/>
<path d="M0 0 C3.2413852 1.6206926 3.86996971 5.09841376 5.1875 8.3125 C10.26288446 20.23421463 16.50744108 30.21718836 25 40 C21.7489539 41.79086365 18.54619054 42.76094351 14.9609375 43.69921875 C13.75405273 44.01769775 12.54716797 44.33617676 11.30371094 44.66430664 C9.9941447 45.00538676 8.68457429 45.34645081 7.375 45.6875 C6.01842289 46.04433983 4.66197914 46.40168697 3.30566406 46.75952148 C0.53652183 47.48993309 -2.23306133 48.2186363 -5.00292969 48.94628906 C-10.75848315 50.46076324 -16.5042116 52.01146516 -22.25 53.5625 C-23.28785645 53.8411792 -24.32571289 54.1198584 -25.39501953 54.40698242 C-31.0455857 55.92532588 -36.68961042 57.4648012 -42.328125 59.02734375 C-43.52791992 59.35726318 -44.72771484 59.68718262 -45.96386719 60.02709961 C-48.27864239 60.66396644 -50.59187014 61.30649124 -52.90332031 61.95532227 C-53.93553711 62.23819092 -54.96775391 62.52105957 -56.03125 62.8125 C-56.94455078 63.06644531 -57.85785156 63.32039063 -58.79882812 63.58203125 C-61 64 -61 64 -63 63 C-42.21 42.21 -21.42 21.42 0 0 Z " fill="#FDFDFE" transform="translate(291,302)"/>
<path d="M0 0 C15.58140289 3.39841298 31.02074406 7.34914772 46.3293457 11.81494141 C53.15671728 13.79420988 60.0259259 15.54457923 66.9296875 17.23535156 C74.00897229 18.97667322 81.01031891 20.92855477 88 23 C87.195625 24.03125 86.39125 25.0625 85.5625 26.125 C77.5777098 36.84043779 71.40415251 47.81445944 66 60 C65.33879825 61.33605182 64.67329219 62.67000006 64 64 C59.46942518 60.20497401 55.14295723 56.28897393 50.97290039 52.10229492 C50.13743683 51.26945984 50.13743683 51.26945984 49.28509521 50.4197998 C47.47011552 48.60917299 45.65876047 46.79497142 43.84765625 44.98046875 C42.5798528 43.71333965 41.311901 42.44635897 40.04380798 41.17951965 C37.40054378 38.53772301 34.7590803 35.89414263 32.11889648 33.24926758 C28.72703432 29.8516735 25.33065516 26.45863565 21.93294621 23.06688976 C19.32074227 20.45828706 16.71090946 17.84732268 14.10180473 15.2356205 C12.84935432 13.98250141 11.59615626 12.73012912 10.34221077 11.47850609 C8.59949644 9.73831485 6.85999162 7.99497937 5.12133789 6.25073242 C4.59934311 5.73076187 4.07734833 5.21079132 3.53953552 4.67506409 C0 1.11426964 0 1.11426964 0 0 Z " fill="#FDFDFE" transform="translate(228,167)"/>
</svg>
