<?xml version="1.0" encoding="UTF-8"?>
<svg xmlns="http://www.w3.org/2000/svg" xmlns:xlink="http://www.w3.org/1999/xlink" width="225px" height="150px" viewBox="0 0 225 150" version="1.1">
<g id="surface1">
<path style=" stroke:none;fill-rule:nonzero;fill:rgb(99.607843%,0%,0%);fill-opacity:1;" d="M 0 0 C 74.25 0 148.5 0 225 0 C 225 49.5 225 99 225 150 C 150.75 150 76.5 150 0 150 C 0 100.5 0 51 0 0 Z M 0 0 "/>
<path style=" stroke:none;fill-rule:nonzero;fill:rgb(0%,0%,58.431373%);fill-opacity:1;" d="M 0 0 C 37.148438 0 74.296875 0 112.570312 0 C 112.570312 24.75 112.570312 49.5 112.570312 75 C 75.421875 75 38.273438 75 0 75 C 0 50.25 0 25.5 0 0 Z M 0 0 "/>
<path style=" stroke:none;fill-rule:nonzero;fill:rgb(99.607843%,99.607843%,99.607843%);fill-opacity:1;" d="M 65.714844 27.015625 C 66.65625 27.855469 67.402344 28.785156 68.105469 29.832031 C 68.179688 29.941406 68.253906 30.054688 68.332031 30.167969 C 70.371094 33.359375 70.773438 37.117188 70.011719 40.765625 C 69.796875 41.660156 69.46875 42.503906 69.089844 43.339844 C 69.027344 43.472656 69.027344 43.472656 68.964844 43.613281 C 68.3125 45.015625 67.464844 46.144531 66.417969 47.28125 C 66.335938 47.371094 66.253906 47.464844 66.167969 47.5625 C 64.039062 49.867188 60.660156 51.324219 57.5625 51.527344 C 57.140625 51.539062 56.722656 51.539062 56.304688 51.535156 C 56.15625 51.535156 56.003906 51.535156 55.851562 51.53125 C 52.449219 51.484375 49.5625 50.347656 47 48.125 C 46.914062 48.0625 46.832031 48 46.75 47.933594 C 44.320312 46.058594 42.679688 42.605469 42.253906 39.617188 C 42.117188 37.871094 42.074219 36.046875 42.496094 34.332031 C 42.53125 34.183594 42.5625 34.03125 42.601562 33.875 C 43.125 31.808594 44.105469 30.0625 45.449219 28.425781 C 45.527344 28.324219 45.601562 28.226562 45.679688 28.125 C 47.648438 25.675781 50.957031 23.929688 54.050781 23.539062 C 58.460938 23.214844 62.28125 24.105469 65.714844 27.015625 Z M 65.714844 27.015625 "/>
<path style=" stroke:none;fill-rule:nonzero;fill:rgb(97.647059%,97.647059%,98.823529%);fill-opacity:1;" d="M 40.667969 34.332031 C 40.644531 34.5 40.621094 34.664062 40.597656 34.835938 C 40.5 35.703125 40.503906 36.570312 40.507812 37.445312 C 40.507812 37.730469 40.507812 38.011719 40.507812 38.296875 C 40.507812 38.476562 40.507812 38.660156 40.507812 38.847656 C 40.507812 39.09375 40.507812 39.09375 40.507812 39.34375 C 40.527344 39.839844 40.585938 40.316406 40.667969 40.808594 C 40.03125 40.710938 39.414062 40.570312 38.789062 40.410156 C 38.691406 40.382812 38.59375 40.359375 38.492188 40.332031 C 38.171875 40.25 37.855469 40.167969 37.535156 40.085938 C 37.3125 40.027344 37.089844 39.96875 36.867188 39.914062 C 33.996094 39.167969 31.132812 38.394531 28.285156 37.570312 C 28.609375 37.242188 28.78125 37.210938 29.226562 37.105469 C 29.363281 37.074219 29.5 37.039062 29.640625 37.007812 C 29.789062 36.972656 29.933594 36.9375 30.085938 36.902344 C 31.214844 36.628906 32.339844 36.339844 33.453125 36.015625 C 34.527344 35.699219 35.601562 35.417969 36.6875 35.15625 C 37.585938 34.9375 38.46875 34.679688 39.347656 34.394531 C 39.851562 34.238281 40.164062 34.179688 40.667969 34.332031 Z M 40.667969 34.332031 "/>
<path style=" stroke:none;fill-rule:nonzero;fill:rgb(98.431373%,98.431373%,99.215686%);fill-opacity:1;" d="M 45.449219 49.390625 C 45.886719 49.597656 46.261719 49.847656 46.648438 50.140625 C 48.101562 51.226562 49.65625 52.007812 51.359375 52.625 C 50.820312 53.269531 50.265625 53.882812 49.671875 54.472656 C 49.550781 54.59375 49.550781 54.59375 49.429688 54.714844 C 49.167969 54.972656 48.910156 55.234375 48.648438 55.492188 C 48.464844 55.675781 48.285156 55.855469 48.101562 56.039062 C 47.628906 56.511719 47.152344 56.988281 46.675781 57.460938 C 46.1875 57.949219 45.699219 58.433594 45.214844 58.921875 C 44.261719 59.871094 43.308594 60.824219 42.355469 61.773438 C 42.164062 61.207031 42.339844 60.8125 42.503906 60.261719 C 42.570312 60.03125 42.636719 59.800781 42.703125 59.574219 C 42.738281 59.449219 42.773438 59.328125 42.808594 59.203125 C 42.996094 58.535156 43.167969 57.863281 43.339844 57.191406 C 43.601562 56.171875 43.882812 55.15625 44.1875 54.148438 C 44.65625 52.574219 45.046875 50.980469 45.449219 49.390625 Z M 45.449219 49.390625 "/>
<path style=" stroke:none;fill-rule:nonzero;fill:rgb(98.039216%,98.039216%,99.215686%);fill-opacity:1;" d="M 71.339844 42.496094 C 71.929688 42.726562 72.320312 43.15625 72.757812 43.597656 C 72.839844 43.679688 72.921875 43.765625 73.011719 43.851562 C 73.285156 44.125 73.5625 44.40625 73.835938 44.683594 C 74.027344 44.875 74.21875 45.066406 74.410156 45.257812 C 74.914062 45.761719 75.417969 46.269531 75.921875 46.773438 C 76.433594 47.292969 76.949219 47.808594 77.464844 48.324219 C 78.472656 49.335938 79.480469 50.347656 80.488281 51.359375 C 79.992188 51.523438 79.832031 51.46875 79.339844 51.328125 C 79.191406 51.289062 79.042969 51.246094 78.890625 51.207031 C 78.734375 51.160156 78.574219 51.117188 78.414062 51.070312 C 78.078125 50.976562 77.746094 50.886719 77.410156 50.792969 C 77.242188 50.746094 77.074219 50.699219 76.902344 50.652344 C 76.175781 50.453125 75.449219 50.265625 74.71875 50.078125 C 73.460938 49.75 72.207031 49.410156 70.953125 49.058594 C 70.375 48.894531 69.792969 48.734375 69.214844 48.574219 C 69 48.511719 68.785156 48.453125 68.570312 48.394531 C 68.417969 48.351562 68.261719 48.308594 68.105469 48.265625 C 68.300781 47.839844 68.527344 47.511719 68.828125 47.15625 C 69.9375 45.746094 70.675781 44.152344 71.339844 42.496094 Z M 71.339844 42.496094 "/>
<path style=" stroke:none;fill-rule:nonzero;fill:rgb(98.431373%,98.431373%,99.215686%);fill-opacity:1;" d="M 80.488281 23.640625 C 79.335938 24.796875 78.1875 25.953125 77.035156 27.105469 C 76.5 27.644531 75.964844 28.179688 75.429688 28.71875 C 74.917969 29.234375 74.402344 29.753906 73.886719 30.269531 C 73.6875 30.46875 73.492188 30.664062 73.292969 30.863281 C 73.019531 31.140625 72.746094 31.414062 72.46875 31.691406 C 72.386719 31.773438 72.304688 31.855469 72.21875 31.941406 C 71.65625 32.503906 71.65625 32.503906 71.339844 32.503906 C 71.28125 32.363281 71.222656 32.21875 71.160156 32.070312 C 70.472656 30.449219 69.726562 28.9375 68.59375 27.570312 C 68.390625 27.300781 68.25 27.039062 68.105469 26.734375 C 68.230469 26.703125 68.230469 26.703125 68.355469 26.671875 C 69.855469 26.285156 71.355469 25.894531 72.84375 25.460938 C 73.90625 25.152344 74.972656 24.871094 76.046875 24.613281 C 77.082031 24.359375 78.101562 24.0625 79.121094 23.75 C 79.238281 23.714844 79.355469 23.679688 79.476562 23.644531 C 79.582031 23.613281 79.683594 23.582031 79.792969 23.550781 C 80.066406 23.5 80.066406 23.5 80.488281 23.640625 Z M 80.488281 23.640625 "/>
<path style=" stroke:none;fill-rule:nonzero;fill:rgb(98.431373%,98.431373%,99.215686%);fill-opacity:1;" d="M 42.214844 13.226562 C 42.855469 13.765625 43.46875 14.320312 44.058594 14.917969 C 44.140625 14.996094 44.21875 15.074219 44.300781 15.15625 C 44.5625 15.417969 44.820312 15.679688 45.082031 15.9375 C 45.261719 16.121094 45.445312 16.300781 45.625 16.484375 C 46.101562 16.960938 46.574219 17.4375 47.050781 17.914062 C 47.535156 18.398438 48.019531 18.886719 48.507812 19.371094 C 49.457031 20.324219 50.410156 21.277344 51.359375 22.234375 C 50.984375 22.484375 50.625 22.648438 50.207031 22.816406 C 48.707031 23.433594 47.34375 24.242188 46.109375 25.300781 C 45.730469 25.609375 45.730469 25.609375 45.449219 25.609375 C 45.417969 25.488281 45.390625 25.371094 45.359375 25.246094 C 44.699219 22.609375 44.699219 22.609375 43.957031 19.988281 C 43.542969 18.632812 43.210938 17.253906 42.875 15.878906 C 42.734375 15.296875 42.585938 14.71875 42.441406 14.140625 C 42.367188 13.835938 42.289062 13.53125 42.214844 13.226562 Z M 42.214844 13.226562 "/>
<path style=" stroke:none;fill-rule:nonzero;fill:rgb(98.039216%,98.039216%,99.215686%);fill-opacity:1;" d="M 56.144531 9.429688 C 56.566406 9.851562 56.609375 10.382812 56.742188 10.949219 C 56.988281 11.972656 57.257812 12.988281 57.550781 14 C 57.863281 15.070312 58.144531 16.144531 58.410156 17.230469 C 58.660156 18.257812 58.953125 19.277344 59.257812 20.289062 C 59.292969 20.40625 59.324219 20.523438 59.363281 20.644531 C 59.390625 20.75 59.421875 20.851562 59.457031 20.957031 C 59.523438 21.246094 59.523438 21.246094 59.523438 21.808594 C 59.390625 21.800781 59.257812 21.789062 59.125 21.78125 C 57.046875 21.632812 54.953125 21.492188 52.90625 21.953125 C 53.039062 21.050781 53.242188 20.191406 53.507812 19.320312 C 53.808594 18.328125 54.070312 17.332031 54.316406 16.324219 C 54.578125 15.246094 54.859375 14.183594 55.183594 13.125 C 55.550781 11.902344 55.84375 10.664062 56.144531 9.429688 Z M 56.144531 9.429688 "/>
<path style=" stroke:none;fill-rule:nonzero;fill:rgb(98.823529%,98.823529%,99.215686%);fill-opacity:1;" d="M 71.90625 34.191406 C 73.238281 34.425781 74.527344 34.75 75.828125 35.132812 C 76.671875 35.378906 77.519531 35.601562 78.378906 35.8125 C 79.734375 36.144531 81.078125 36.527344 82.421875 36.914062 C 83.042969 37.09375 83.664062 37.261719 84.285156 37.429688 C 83.859375 37.714844 83.570312 37.804688 83.078125 37.929688 C 82.917969 37.96875 82.761719 38.007812 82.597656 38.050781 C 82.429688 38.09375 82.261719 38.132812 82.089844 38.175781 C 81 38.453125 79.917969 38.730469 78.84375 39.054688 C 77.609375 39.433594 76.355469 39.734375 75.101562 40.042969 C 74.25 40.253906 73.402344 40.480469 72.554688 40.714844 C 72.1875 40.808594 72.1875 40.808594 71.90625 40.808594 C 71.914062 40.714844 71.925781 40.625 71.933594 40.53125 C 72.039062 39.492188 72.066406 38.464844 72.0625 37.421875 C 72.0625 37.265625 72.0625 37.109375 72.0625 36.949219 C 72.0625 36.023438 72.019531 35.113281 71.90625 34.191406 Z M 71.90625 34.191406 "/>
<path style=" stroke:none;fill-rule:nonzero;fill:rgb(98.431373%,98.431373%,99.215686%);fill-opacity:1;" d="M 52.90625 53.046875 C 52.992188 53.070312 53.078125 53.089844 53.164062 53.109375 C 55.226562 53.53125 57.4375 53.421875 59.523438 53.191406 C 59.3125 54.292969 59.054688 55.382812 58.78125 56.46875 C 58.738281 56.644531 58.695312 56.816406 58.652344 56.996094 C 58.359375 58.148438 58.046875 59.296875 57.710938 60.4375 C 57.429688 61.40625 57.183594 62.378906 56.953125 63.355469 C 56.777344 64.074219 56.554688 64.746094 56.285156 65.429688 C 56.085938 65.054688 55.9375 64.695312 55.820312 64.285156 C 55.789062 64.171875 55.753906 64.058594 55.722656 63.941406 C 55.6875 63.816406 55.652344 63.695312 55.617188 63.566406 C 55.578125 63.4375 55.542969 63.308594 55.503906 63.175781 C 55.1875 62.042969 54.902344 60.902344 54.621094 59.757812 C 54.394531 58.835938 54.144531 57.925781 53.871094 57.015625 C 53.636719 56.242188 53.421875 55.464844 53.214844 54.683594 C 53.183594 54.570312 53.152344 54.453125 53.121094 54.335938 C 53.007812 53.898438 52.90625 53.503906 52.90625 53.046875 Z M 52.90625 53.046875 "/>
<path style=" stroke:none;fill-rule:nonzero;fill:rgb(98.823529%,98.823529%,99.215686%);fill-opacity:1;" d="M 66.839844 49.390625 C 67.085938 49.761719 67.191406 49.984375 67.308594 50.402344 C 67.339844 50.519531 67.375 50.636719 67.410156 50.757812 C 67.445312 50.882812 67.480469 51.011719 67.515625 51.140625 C 67.570312 51.339844 67.570312 51.339844 67.628906 51.539062 C 67.90625 52.53125 68.15625 53.523438 68.402344 54.523438 C 68.609375 55.375 68.84375 56.21875 69.089844 57.058594 C 69.382812 58.074219 69.664062 59.089844 69.925781 60.109375 C 69.957031 60.230469 69.988281 60.351562 70.019531 60.476562 C 70.230469 61.316406 70.230469 61.316406 70.074219 61.632812 C 67.148438 58.707031 64.222656 55.78125 61.210938 52.765625 C 61.425781 52.332031 61.847656 52.28125 62.28125 52.125 C 63.960938 51.484375 65.46875 50.546875 66.839844 49.390625 Z M 66.839844 49.390625 "/>
<path style=" stroke:none;fill-rule:nonzero;fill:rgb(98.823529%,98.823529%,99.607843%);fill-opacity:1;" d="M 70.074219 13.367188 C 70.265625 13.746094 70.175781 13.90625 70.074219 14.3125 C 70.039062 14.449219 70.007812 14.582031 69.972656 14.722656 C 69.914062 14.945312 69.914062 14.945312 69.855469 15.171875 C 69.816406 15.324219 69.777344 15.476562 69.738281 15.632812 C 69.460938 16.714844 69.160156 17.789062 68.84375 18.863281 C 68.570312 19.808594 68.328125 20.757812 68.097656 21.714844 C 67.773438 23.03125 67.40625 24.324219 66.980469 25.609375 C 66.449219 25.300781 65.957031 24.957031 65.457031 24.597656 C 64.144531 23.667969 62.691406 22.996094 61.210938 22.375 C 61.746094 21.734375 62.296875 21.125 62.886719 20.539062 C 62.964844 20.460938 63.042969 20.382812 63.125 20.304688 C 63.378906 20.046875 63.636719 19.792969 63.890625 19.539062 C 64.070312 19.359375 64.25 19.179688 64.425781 19.003906 C 64.894531 18.535156 65.363281 18.070312 65.832031 17.601562 C 66.308594 17.125 66.785156 16.648438 67.265625 16.171875 C 68.203125 15.234375 69.136719 14.300781 70.074219 13.367188 Z M 70.074219 13.367188 "/>
<path style=" stroke:none;fill-rule:nonzero;fill:rgb(99.215686%,99.215686%,99.607843%);fill-opacity:1;" d="M 40.949219 42.496094 C 41.402344 42.722656 41.492188 43.210938 41.675781 43.664062 C 42.390625 45.34375 43.269531 46.746094 44.464844 48.125 C 44.007812 48.375 43.558594 48.511719 43.050781 48.644531 C 42.882812 48.6875 42.714844 48.734375 42.539062 48.78125 C 42.355469 48.828125 42.167969 48.875 41.984375 48.925781 C 41.792969 48.972656 41.601562 49.023438 41.414062 49.074219 C 41.023438 49.179688 40.632812 49.28125 40.242188 49.382812 C 39.433594 49.597656 38.625 49.8125 37.816406 50.03125 C 37.671875 50.070312 37.523438 50.109375 37.375 50.152344 C 36.578125 50.363281 35.785156 50.582031 34.992188 50.800781 C 34.824219 50.847656 34.652344 50.894531 34.480469 50.941406 C 34.152344 51.03125 33.828125 51.121094 33.503906 51.214844 C 33.359375 51.253906 33.210938 51.292969 33.0625 51.332031 C 32.933594 51.371094 32.804688 51.40625 32.671875 51.441406 C 32.363281 51.5 32.363281 51.5 32.082031 51.359375 C 35.007812 48.433594 37.933594 45.507812 40.949219 42.496094 Z M 40.949219 42.496094 "/>
<path style=" stroke:none;fill-rule:nonzero;fill:rgb(99.215686%,99.215686%,99.607843%);fill-opacity:1;" d="M 32.082031 23.5 C 34.273438 23.976562 36.449219 24.53125 38.601562 25.160156 C 39.5625 25.441406 40.527344 25.6875 41.5 25.925781 C 42.496094 26.167969 43.480469 26.445312 44.464844 26.734375 C 44.351562 26.878906 44.238281 27.027344 44.121094 27.175781 C 43 28.683594 42.128906 30.226562 41.371094 31.941406 C 41.277344 32.128906 41.183594 32.316406 41.089844 32.503906 C 40.449219 31.96875 39.84375 31.417969 39.253906 30.832031 C 39.136719 30.714844 39.136719 30.714844 39.019531 30.59375 C 38.761719 30.339844 38.507812 30.082031 38.253906 29.828125 C 38.074219 29.648438 37.894531 29.472656 37.71875 29.292969 C 37.34375 28.921875 36.972656 28.550781 36.601562 28.175781 C 36.125 27.699219 35.648438 27.222656 35.167969 26.746094 C 34.800781 26.378906 34.433594 26.011719 34.066406 25.644531 C 33.890625 25.464844 33.714844 25.289062 33.539062 25.113281 C 33.292969 24.871094 33.046875 24.625 32.804688 24.378906 C 32.730469 24.304688 32.65625 24.230469 32.582031 24.15625 C 32.082031 23.65625 32.082031 23.65625 32.082031 23.5 Z M 32.082031 23.5 "/>
</g>
</svg>
